HIERARCHY
ROOT Hips
{
	OFFSET -0.001795 -0.223333 0.028219
	CHANNELS 6 Xposition Yposition Zposition Zrotation Yrotation Xrotation 
	JOINT LeftUpLeg
	{
		OFFSET 0.069520 -0.091406 -0.006815
		CHANNELS 3 Zrotation Yrotation Xrotation
		JOINT LeftLeg
		{
			OFFSET 0.034277 -0.375199 -0.004496
			CHANNELS 3 Zrotation Yrotation Xrotation
			JOINT LeftFoot
			{
				OFFSET -0.013596 -0.397961 -0.043693
				CHANNELS 3 Zrotation Yrotation Xrotation
				JOINT LeftToe
				{
					OFFSET 0.026358 -0.055791 0.119288
					CHANNELS 3 Zrotation Yrotation Xrotation
					End Site
					{
						OFFSET 0.000000 0.000000 0.000000
					}
				}
			}
		}
	}
	JOINT RightUpLeg
	{
		OFFSET -0.067670 -0.090522 -0.004320
		CHANNELS 3 Zrotation Yrotation Xrotation
		JOINT RightLeg
		{
			OFFSET -0.038290 -0.382569 -0.008850
			CHANNELS 3 Zrotation Yrotation Xrotation
			JOINT RightFoot
			{
				OFFSET 0.015774 -0.398415 -0.042312
				CHANNELS 3 Zrotation Yrotation Xrotation
				JOINT RightToe
				{
					OFFSET -0.025372 -0.048144 0.123348
					CHANNELS 3 Zrotation Yrotation Xrotation
					End Site
					{
						OFFSET 0.000000 0.000000 0.000000
					}
				}
			}
		}
	}
	JOINT Spine
	{
		OFFSET -0.002533 0.108963 -0.026696
		CHANNELS 3 Zrotation Yrotation Xrotation
		JOINT Spine1
		{
			OFFSET 0.005487 0.135180 0.001092
			CHANNELS 3 Zrotation Yrotation Xrotation
			JOINT Spine2
			{
				OFFSET 0.001457 0.052922 0.025425
				CHANNELS 3 Zrotation Yrotation Xrotation
				JOINT Neck
				{
					OFFSET -0.002778 0.213870 -0.042857
					CHANNELS 3 Zrotation Yrotation Xrotation
					JOINT Head
					{
						OFFSET 0.005152 0.064970 0.051349
						CHANNELS 3 Zrotation Yrotation Xrotation
						End Site
						{
							OFFSET 0.000000 0.000000 0.000000
						}
					}
				}
				JOINT LeftShoulder
				{
					OFFSET 0.078845 0.121749 -0.034090
					CHANNELS 3 Zrotation Yrotation Xrotation
					JOINT LeftArm
					{
						OFFSET 0.090977 0.030469 -0.008868
						CHANNELS 3 Zrotation Yrotation Xrotation
						JOINT LeftForeArm
						{
							OFFSET 0.259612 -0.012772 -0.027456
							CHANNELS 3 Zrotation Yrotation Xrotation
							JOINT LeftHand
							{
								OFFSET 0.249234 0.008986 -0.001171
								CHANNELS 3 Zrotation Yrotation Xrotation
								End Site
								{
									OFFSET 0.000000 0.000000 0.000000
								}
							}
						}
					}
				}
				JOINT RightShoulder
				{
					OFFSET -0.081759 0.118833 -0.038615
					CHANNELS 3 Zrotation Yrotation Xrotation
					JOINT RightArm
					{
						OFFSET -0.096012 0.032551 -0.009143
						CHANNELS 3 Zrotation Yrotation Xrotation
						JOINT RightForeArm
						{
							OFFSET -0.253742 -0.013329 -0.021401
							CHANNELS 3 Zrotation Yrotation Xrotation
							JOINT RightHand
							{
								OFFSET -0.255298 0.007772 -0.005559
								CHANNELS 3 Zrotation Yrotation Xrotation
								End Site
								{
									OFFSET 0.000000 0.000000 0.000000
								}
							}
						}
					}
				}
			}
		}
	}
}
MOTION
Frames: 7
Frame Time: 0.050000
-0.152948 0.943167 0.733546 -0.752699 6.630616 -2.945858 3.583724 0.007207 1.400769 0.337560 0.123711 -4.387997 5.158089 13.844839 13.981107 0.000000 0.000000 0.000000 -0.452962 -0.092994 0.895383 2.620140 -0.291640 2.498926 0.313632 -0.781044 3.865820 0.000000 0.000000 0.000000 5.660699 -0.407436 4.417443 -1.175064 0.631076 -1.553057 -5.871143 8.040341 6.930371 10.022593 -3.340286 -17.920949 0.000000 0.000000 0.000000 -12.624040 -8.713033 0.548379 -43.291112 -14.099542 0.099698 0.797274 -72.277807 -1.829726 0.000000 0.000000 0.000000 18.300825 -1.375427 0.594449 54.619641 18.689718 2.676702 -11.557223 70.326950 -0.233525 0.000000 0.000000 0.000000 
-0.147041 0.943345 0.729601 -0.957370 6.366309 -2.996382 3.470444 -0.005971 1.042839 0.183982 0.121023 -4.004415 5.362136 14.088224 13.793276 0.000000 0.000000 0.000000 -0.615588 -0.008581 0.073202 2.542302 -0.266831 3.590508 0.391816 -0.666618 4.010078 0.000000 0.000000 0.000000 5.697917 -0.411851 4.460478 -1.460487 0.761234 -1.504989 -6.050476 8.741665 6.795079 10.339273 -3.448939 -17.999445 0.000000 0.000000 0.000000 -12.694071 -9.877912 0.923324 -42.936449 -16.519204 0.977338 4.894617 -68.462195 -4.628081 0.000000 0.000000 0.000000 18.133226 -0.159780 1.408180 53.244538 20.441510 3.298440 -12.193916 64.847023 -0.663341 0.000000 0.000000 0.000000 
-0.141444 0.943187 0.725796 -1.122488 6.209676 -3.085849 3.251580 -0.009450 0.839541 0.182015 0.115770 -3.833400 5.508965 14.252994 13.570300 0.000000 0.000000 0.000000 -0.823004 0.085513 -0.890652 2.521622 -0.248979 5.050091 0.399597 -0.656183 4.007240 0.000000 0.000000 0.000000 5.502320 -0.433872 4.803227 -1.637206 0.846737 -1.626271 -6.067305 9.021078 6.809702 10.427117 -3.480163 -17.998664 0.000000 0.000000 0.000000 -13.077364 -10.765590 1.197675 -42.352582 -18.795896 1.786142 8.166717 -65.316606 -6.464581 0.000000 0.000000 0.000000 17.470634 1.150596 2.134267 52.172726 21.883133 3.833414 -12.604977 60.049701 -0.989532 0.000000 0.000000 0.000000 
-0.136372 0.943240 0.722420 -1.470974 5.867363 -3.091920 3.218893 -0.009597 0.784502 0.281998 0.115942 -4.036371 5.717425 14.523760 13.519715 0.000000 0.000000 0.000000 -0.915276 0.193250 -2.027491 2.707673 -0.267198 6.613169 0.513181 -0.482841 4.192072 0.000000 0.000000 0.000000 5.676394 -0.453003 4.922070 -1.811766 0.925473 -1.609116 -6.329758 9.240570 6.827666 10.537427 -3.564326 -17.876603 0.000000 0.000000 0.000000 -13.207120 -11.725904 1.574109 -41.736902 -20.884003 2.475310 12.319786 -62.364550 -8.605519 0.000000 0.000000 0.000000 16.909491 2.175884 2.673613 51.087709 22.916992 4.149237 -14.163529 56.394460 -1.839966 0.000000 0.000000 0.000000 
-0.132103 0.943490 0.719781 -1.531251 5.906950 -2.848568 3.001338 -0.020481 0.543424 0.241792 0.129304 -4.370550 5.697308 14.510194 13.591294 0.000000 0.000000 0.000000 -1.147697 0.274416 -2.945767 2.711063 -0.264315 7.494356 0.495346 -0.607565 4.410810 0.000000 0.000000 0.000000 5.568237 -0.448821 4.875344 -1.926499 0.985010 -1.900031 -6.326842 9.205256 6.992454 10.510866 -3.574937 -17.772093 0.000000 0.000000 0.000000 -13.023130 -12.332485 1.878714 -41.390895 -22.549952 2.966670 16.281306 -60.834299 -10.668369 0.000000 0.000000 0.000000 16.044751 2.758160 2.895187 50.522406 23.510428 4.379738 -15.528504 54.125568 -2.481838 0.000000 0.000000 0.000000 
-0.128830 0.943880 0.718045 -1.630533 5.855384 -2.674621 2.988373 -0.016493 0.622729 0.047424 0.160885 -5.028191 5.681083 14.514780 13.793300 0.000000 0.000000 0.000000 -1.113453 0.313413 -3.357985 2.438574 -0.210706 7.685326 0.532036 -0.627836 4.676943 0.000000 0.000000 0.000000 5.492242 -0.430547 4.680233 -2.032880 1.036539 -2.062519 -6.280442 9.217196 7.176883 10.408660 -3.525747 -17.727189 0.000000 0.000000 0.000000 -12.727178 -12.947363 2.201295 -41.065185 -24.431764 3.509955 20.165574 -59.360376 -12.601396 0.000000 0.000000 0.000000 15.404228 2.955872 2.924676 49.768422 23.817478 4.421396 -17.953559 52.409644 -3.544625 0.000000 0.000000 0.000000 
-0.126398 0.944249 0.717226 -1.695695 5.936879 -2.515027 2.869418 -0.005832 0.780016 0.083160 0.179213 -5.727570 5.589840 14.421123 13.996057 0.000000 0.000000 0.000000 -0.866125 0.314716 -3.298481 1.841163 -0.103740 7.201634 0.516331 -0.741022 4.900627 0.000000 0.000000 0.000000 5.467720 -0.402639 4.354879 -2.069711 1.050875 -1.970983 -6.253185 8.775517 7.159925 10.068477 -3.416407 -17.455748 0.000000 0.000000 0.000000 -12.458809 -13.133899 2.403979 -40.685000 -25.672284 3.828203 23.591632 -58.311254 -14.197897 0.000000 0.000000 0.000000 14.595228 3.243707 2.900504 49.806737 23.952931 4.575761 -20.644547 51.255836 -4.736998 0.000000 0.000000 0.000000 
